<svg version="1.2" xmlns="http://www.w3.org/2000/svg" viewBox="0 0 964 261" width="964" height="261">
	<defs>
		<linearGradient id="g1" x2="1" gradientUnits="userSpaceOnUse" gradientTransform="matrix(343.011,0,0,102.005,592.989,151.003)">
			<stop offset="0" stop-color="#6ed9e7"/>
			<stop offset="1" stop-color="#274b94"/>
		</linearGradient>
		<linearGradient id="g2" x2="1" gradientUnits="userSpaceOnUse" gradientTransform="matrix(378.836,0,0,147.86,26.17,103.338)">
			<stop offset="0" stop-color="#3bddf1"/>
			<stop offset="1" stop-color="#136294"/>
		</linearGradient>
	</defs>
	<style>
		.s0 { fill: url(#g1) } 
		.s1 { fill: #21568c } 
		.s2 { fill: url(#g2) } 
	</style>
	<path id="Preencher com Gradiente 2" fill-rule="evenodd" class="s0" d="m744.5 100c6.33 0 11.52 0.34 11.54 0.75 0.03 0.41-5.37 5.14-24.04 20.25h-6.5c-3.67 0-6.5-0.44-6.5-1 0-0.55 3.16-4.94 7.02-9.75 3.86-4.81 7.01-9.09 7-9.5-0.01-0.41 5.15-0.75 11.48-0.75zm110.65 1c2.12 0 4.86 0.52 6.1 1.16 1.24 0.64 2.8 1.88 3.47 2.75 0.67 0.88 1.23 3.28 1.25 5.34 0.02 2.82-0.69 4.49-2.89 6.75-1.61 1.65-3.97 3-5.25 2.99-1.28 0-4.02-0.45-6.08-1-2.73-0.72-4.18-1.87-5.36-4.24-1.02-2.07-1.38-4.43-1-6.5 0.35-1.85 1.76-4.11 3.26-5.25 1.59-1.19 4.21-2 6.5-2zm-218.15 4.14c1.38-0.05 5.65 0.35 9.5 0.91 3.85 0.55 9.7 2.25 13 3.78 3.3 1.52 7.91 4.66 10.25 6.97 2.34 2.31 5.38 6.45 6.75 9.2 1.38 2.75 3.17 7.81 3.99 11.25 0.81 3.44 1.49 10.98 1.5 16.75 0.01 6.29-0.6 12.9-1.53 16.5-0.85 3.3-2.4 7.8-3.44 10-1.05 2.2-3.66 6.02-5.81 8.5-2.14 2.48-6.56 5.91-9.8 7.64-3.25 1.73-8.27 3.64-11.16 4.25-2.89 0.61-8.74 1.11-13 1.12-4.26 0-10.45-0.71-13.75-1.57-3.3-0.86-8.2-2.77-10.89-4.25-2.7-1.48-6.47-4.49-8.38-6.69-1.92-2.2-4.72-6.7-6.24-10-1.51-3.3-3.25-8.36-3.87-11.25-0.62-2.89-1.12-9.19-1.13-14-0.01-4.81 0.41-11 0.92-13.75 0.52-2.75 1.84-7.48 2.94-10.5 1.25-3.43 4-7.7 7.33-11.35 3.49-3.84 7.38-6.83 11.32-8.73 3.3-1.58 8.92-3.28 12.5-3.77 3.58-0.5 7.63-0.95 9-1.01zm-9 18.46c-1.92 0.84-4.35 2.28-5.38 3.21-1.03 0.93-2.87 3.26-4.08 5.19-1.22 1.93-2.73 5.64-3.37 8.25-0.65 2.61-1.17 8.69-1.17 13.5-0.01 4.81 0.56 11.02 1.25 13.8 0.69 2.77 2.6 6.97 4.25 9.32 1.65 2.35 4.8 5.15 7 6.22 2.9 1.42 6.06 1.95 11.5 1.94 6.18-0.02 8.25-0.46 11.75-2.53 2.34-1.37 5.16-3.96 6.27-5.75 1.11-1.79 2.74-5.73 3.61-8.75 0.99-3.43 1.56-9.07 1.51-15-0.05-5.32-0.75-11.81-1.61-14.75-0.84-2.89-2.99-6.9-4.78-8.91-1.79-2.02-5.05-4.48-7.25-5.48-2.46-1.12-6.31-1.81-10-1.8-3.3 0.01-7.58 0.7-9.5 1.54zm101.5 4.47c5.5-0.06 10.94 0.5 14 1.43 2.75 0.84 6.46 2.65 8.25 4.02 1.79 1.36 4.26 4.39 5.5 6.73 2.16 4.08 2.26 5.38 2.75 60.75h-14l-3.5-9.83-4.54 4.16c-2.86 2.62-6.39 4.69-9.5 5.58-3.33 0.94-7.43 1.21-12.46 0.83-6.11-0.46-8.23-1.09-11.41-3.4-2.15-1.56-4.83-4.64-5.96-6.84-1.12-2.2-2.22-6.48-2.44-9.5-0.22-3.02 0.21-7.48 0.96-9.9 0.74-2.43 2.48-5.53 3.85-6.9 1.38-1.37 4.97-3.62 8-4.99 4.31-1.96 8.39-2.74 32.1-4.71l-0.64-4c-0.36-2.2-1.62-5.05-2.8-6.32-1.49-1.61-3.71-2.5-7.16-2.89-3.62-0.41-6.93 0.04-12 1.63-3.85 1.21-7.56 2.4-8.25 2.64-0.74 0.26-2.47-2.01-4.25-5.56-1.65-3.3-3-6.23-3-6.5 0-0.27 1.35-1.18 3-2 1.65-0.82 5.59-2.14 8.75-2.92 3.16-0.78 9.8-1.46 14.75-1.51zm76.5 0.3c8.24 0.29 13.27 1 24 4.63l-2.92 6.75c-1.61 3.71-3.3 6.73-3.75 6.71-0.46-0.02-3.98-1.04-7.83-2.27-3.85-1.23-9.14-2.22-11.75-2.21-3.4 0.01-5.32 0.59-6.75 2.02-1.43 1.43-1.79 2.62-1.25 4.19 0.41 1.21 2.1 3.01 3.75 4 1.65 1 6.99 3.5 11.86 5.56 4.87 2.06 10.61 5.21 12.75 7 2.33 1.95 4.34 4.75 5.02 7 0.62 2.06 1.07 6.11 1 9-0.07 2.92-0.97 6.91-2.02 9-1.05 2.06-2.73 4.51-3.75 5.44-1.02 0.93-4.11 2.73-6.86 3.99-4.41 2.04-6.54 2.31-18 2.32-9.72 0-14.32-0.44-23.5-3.5v-8c0-7.18 0.18-7.94 1.75-7.4 0.96 0.33 4.22 1.52 7.25 2.64 3.82 1.41 8.15 2.07 14.2 2.15 7.61 0.1 8.9-0.14 10.22-1.89 0.83-1.1 1.53-3.01 1.55-4.25 0.02-1.39-1.21-3.19-3.22-4.71-1.79-1.36-6.17-3.74-9.75-5.29-3.58-1.56-8.3-3.78-10.5-4.94-2.2-1.16-4.99-3.17-6.19-4.46-1.21-1.29-2.9-4.04-3.75-6.1-0.86-2.06-1.56-5.55-1.56-7.75 0-2.2 0.59-5.46 1.32-7.25 0.73-1.79 2.64-4.5 4.25-6.02 1.61-1.52 5.18-3.66 7.93-4.76 4.24-1.68 6.75-1.93 16.5-1.6zm106.5 0.02c7.72 0.27 12.86 1.02 23.5 4.61l-2.67 6.25c-1.47 3.44-2.93 6.57-3.25 6.96-0.32 0.39-3.62-0.4-7.33-1.75-4.11-1.5-8.9-2.46-12.25-2.46-4.17 0-5.98 0.48-7.5 2-1.48 1.48-1.79 2.58-1.19 4.25 0.51 1.41 3.4 3.56 7.75 5.76 3.82 1.93 9.41 4.62 12.44 5.98 3.03 1.35 6.81 3.6 8.42 4.99 1.6 1.38 3.51 3.98 4.25 5.77 0.73 1.79 1.32 5.84 1.31 9-0.02 3.42-0.77 7.37-1.86 9.75-1.01 2.2-2.69 4.76-3.73 5.69-1.04 0.93-4.14 2.73-6.89 4-4.41 2.04-6.53 2.31-18 2.31-9.71 0-14.33-0.44-23.5-3.5v-16l7.25 2.63c5.6 2.04 9.25 2.66 16.08 2.75 7.75 0.11 9-0.12 10.26-1.88 0.8-1.1 1.44-3.01 1.43-4.25-0.01-1.36-1.3-3.2-3.27-4.66-1.79-1.33-7.97-4.62-13.75-7.32-6.52-3.04-11.54-6.11-13.25-8.08-1.51-1.76-3.25-5.1-3.85-7.44-0.61-2.34-0.81-6.27-0.46-8.75 0.36-2.48 1.33-5.62 2.16-7 0.83-1.37 2.95-3.51 4.71-4.75 1.75-1.24 5.22-2.92 7.69-3.74 3.25-1.08 7.55-1.39 15.5-1.12zm-66.5 0.61h19v72h-19zm-114 39.06c-4.12 0.34-8.79 1.25-10.37 2.03-1.58 0.78-3.49 2.65-4.25 4.16-0.76 1.51-1.38 4.1-1.38 5.75 0 1.67 0.89 3.89 2 5 1.1 1.1 3.24 2.28 4.75 2.63 1.51 0.35 4.33 0.34 6.25-0.01 1.92-0.35 4.51-1.31 5.75-2.13 1.24-0.82 2.98-2.95 3.86-4.74 0.89-1.79 1.76-5.33 1.94-7.86 0.17-2.54 0.01-4.81-0.37-5.04-0.37-0.23-4.05-0.14-8.18 0.21z"/>
	<path id="Preencher com Cor Sólida 1" fill-rule="evenodd" class="s1" d="m397.81 31.54c2.03 0.35 5.04 1.02 6.69 1.49 1.65 0.48 4.69 2.69 6.75 4.92 2.71 2.92 3.9 5.23 4.29 8.3 0.3 2.34 0.41 29.45-0.04 116.25l-25 0.59c-13.75 0.33-28.38 1.12-32.5 1.76-4.13 0.64-9.08 1.27-14.5 1.65l-0.02 7.5c-0.02 4.13-0.13 9.52-0.47 16.5l-11.75-0.7c-6.47-0.39-13.03-0.39-14.57 0-2.28 0.57-2.76 1.18-2.19 5.7l28.5 0.5 0.25 7.6c0.14 4.19 0.02 7.91-0.25 8.28-0.27 0.37-5.67 0.61-12 0.55-6.33-0.06-15.77-0.18-30.5-0.41l-1.25-3.01c-0.69-1.66-2.38-3.46-3.75-4.01-1.38-0.55-10.49-1.01-38-1.03l-1.25 6.27c-0.69 3.44-2.72 8.69-4.5 11.66-2.05 3.4-5.47 7.04-9.25 9.82-3.32 2.45-8.45 5.11-11.5 5.98-3.7 1.05-7.95 1.41-13 1.1-5.63-0.35-8.96-1.19-13.37-3.38-3.23-1.61-7.84-5.06-10.25-7.67-2.41-2.61-5.34-6.89-6.51-9.5-1.18-2.61-2.49-7.23-2.93-10.25-0.52-3.61-0.35-7.74 0.51-12 0.71-3.57 2.03-7.96 2.92-9.75 0.9-1.79 3.32-5.12 5.38-7.41 2.06-2.29 6-5.62 8.75-7.4 2.75-1.77 7.82-3.84 11.27-4.58 4.11-0.89 5.66-1.58 4.5-2-0.97-0.35-6.5-1.36-12.27-2.25-5.77-0.88-16.35-2.06-23.5-2.61-7.15-0.56-19.86-1.01-28.25-1-8.39 0-17.61 0.51-20.5 1.13-2.89 0.63-7.73 2.3-10.75 3.71-3.31 1.55-7.82 4.98-11.34 8.62-3.21 3.32-6.89 8.29-8.17 11.04-1.29 2.75-2.81 7.02-3.39 9.5-0.58 2.48-1.06 5.96-1.1 11l-19.01 0.25c-10.46 0.14-19.46 0.14-20 0-0.62-0.16-1-8.86-1.04-45.75l5.21-5 71.17 0.05c60.86 0.05 72.98 0.3 83.67 1.74 6.87 0.92 17 2.85 22.5 4.28 5.5 1.43 14.27 4.19 19.5 6.14 5.23 1.94 12.2 4.9 15.5 6.56 3.3 1.66 9.83 5.39 14.5 8.28 4.67 2.9 10.3 6.67 12.5 8.39 2.2 1.72 4.34 3.11 4.75 3.09 0.41-0.01 0.73-1.27 0.71-2.78-0.03-2.04-1.66-4.29-6.32-8.75-3.45-3.3-10.3-8.76-15.21-12.14-4.91-3.38-12.08-7.98-15.93-10.23-3.85-2.25-6.55-4.13-6-4.17 0.55-0.04 14.84-0.05 31.75-0.02 19.87 0.04 30.75-0.29 30.75-0.94 0-0.55-1.46-0.99-3.25-0.97-1.83 0.02-4.01-0.74-5-1.75-0.97-0.98-1.42-2.08-1-2.45 0.41-0.37 3.45 0.19 6.75 1.23 3.3 1.05 9.6 2.4 14 3.01 4.4 0.6 10.48 0.78 13.5 0.4 3.02-0.38 6.51-1.09 7.75-1.58 1.75-0.69 2.53-0.46 3.5 1.04 1.14 1.77 1.77 1.85 7.25 0.89 3.3-0.57 6.43-1.44 6.95-1.93 0.52-0.49 2.66-0.89 4.75-0.89 2.94 0 4.05 0.51 6.04 4.5l3.26-4.59 2.5 2.57c1.37 1.42 1.94 2.56 1.25 2.55-0.69-0.02-1.25 0.42-1.25 0.97 0 0.58 3.17 1 15 1v-112l-2.5-3c-1.7-2.04-4.26-3.48-8-4.5-4.86-1.33-5.49-1.8-5.44-4.05 0.05-2.37 0.3-2.5 3.75-1.91zm63.69 22.46c3.83 0 4.5 0.3 4.5 2 0 1.1 0.34 2.03 0.75 2.07 0.41 0.04 3.67 0.31 7.25 0.59 3.6 0.29 8.28 1.44 10.5 2.57 2.2 1.12 4.33 2.54 4.73 3.15 0.41 0.62 0.75 1.46 0.75 1.87 0.01 0.41-2 0.75-4.48 0.75-3.12 0-4.39 0.38-4.15 1.25 0.2 0.69 2.73 8.23 5.62 16.75 2.89 8.52 5.77 16.08 6.39 16.78 0.63 0.71 3.62 1.75 6.64 2.33 3.02 0.57 10 2.15 15.5 3.5 5.5 1.35 14.72 4.06 20.5 6.03 5.78 1.97 15 5.4 20.5 7.63 5.5 2.23 11.02 4.77 12.26 5.64 1.39 0.97 2.44 2.95 2.71 5.09 0.25 1.93 0.69 11.71 1.53 40l-44.5-0.08-3.25-2.96c-1.79-1.63-5.16-3.93-7.5-5.11-2.34-1.19-6.5-2.76-9.25-3.49-2.75-0.74-7.25-1.35-10-1.36-2.75-0.01-7.48 0.43-10.5 0.99-3.02 0.56-8.37 2.47-11.87 4.26-3.7 1.89-8.55 5.55-11.59 8.75-2.88 3.02-6.37 7.75-7.75 10.5-1.38 2.75-3.09 7.48-3.79 10.5-0.7 3.02-1.1 8.99-0.5 20.99l-27.25 0.01c-26.58 0-27.25-0.05-27.25-2 0-1.94 0.67-2 21.5-2 13.33 0 21.69-0.38 22-1 0.27-0.55 0.27-1.67 0-2.5-0.42-1.27-3.78-1.5-43.5-1.5v-13l6.75-0.13c3.71-0.07 13.5-0.41 21.75-0.75 12.39-0.51 15-0.88 15-2.12 0-1.28-3.19-1.54-43.5-2v-14h22c18.89 0 22-0.21 22-1.5 0-0.92-1.25-1.69-3.25-2-1.79-0.27-5.27-0.4-7.75-0.27-2.48 0.12-10.91 0.12-18.75 0-8.68-0.14-14.25-0.62-14.25-1.23 0-0.61 4.6-1 11.8-1 8.12 0 12.18-0.39 13.02-1.25 0.92-0.95 1.21-13.63 1.19-52.75-0.02-50.46 0.02-51.53 1.99-52.75 1.1-0.69 7.96-1.68 15.25-2.21 7.29-0.54 13.81-0.99 14.5-1 0.69-0.02 1.25-0.94 1.25-2.04 0-1.7 0.67-2 4.5-2zm-28.56 14.93c-0.71 1.24-1.09 7.95-1.03 18.5 0.05 9.12 0.54 17.47 1.09 18.57 0.87 1.74 2.02 2 8.75 2.03 5.15 0.02 8.42 0.52 9.75 1.49 1.64 1.19 5.06 1.35 19 0.88 9.35-0.31 17.56-0.75 18.25-0.98 0.89-0.3-0.86-6.54-6-21.45l-7.25-21.03c-40.14 0.06-41.51 0.18-42.56 1.99zm8.56 1.56c1.65 0.29 5.92 0.52 16 0.47l0.78 4.27c0.42 2.35 2.16 8.77 3.85 14.27 1.7 5.5 3.94 11.69 4.98 13.75 1.04 2.06 1.89 3.98 1.89 4.25 0 0.27-3.49 0.49-7.75 0.47-5.93-0.01-8.18-0.43-9.6-1.75-1.22-1.12-4.15-1.89-15.15-2.72l-0.44-15.92c-0.36-13.14-0.19-16.08 1-16.78 0.79-0.47 2.79-0.61 4.44-0.31zm53.02 40.16c-0.47 0.37-0.78 8.71-0.69 18.52l0.17 17.83c-59.96 0-61.98 0.12-61.74 1.75 0.25 1.62 2.63 1.77 31.33 2.01 26.6 0.23 31.31 0.05 32.74-1.25 1.46-1.32 1.64-3.8 1.42-20.18-0.16-12.12-0.62-18.79-1.32-19.02-0.58-0.19-1.45-0.04-1.91 0.34zm53.48 43.35c0 1.7 0.67 2 4.5 2h4.5c0.44 10.08 0.87 11.5 2 11.5 1.13 0 1.56-1.42 1.75-5.75 0.25-5.67 0.29-5.75 3.25-5.75 2.33 0 3-0.44 3-2 0-1.86-0.67-2-9.5-2-8.83 0-9.5 0.14-9.5 2zm-403 12.53c3.02 0.27 7.68 1.28 10.33 2.24 2.66 0.95 6.9 3.31 9.41 5.23 2.52 1.93 5.85 5.08 7.4 7 1.55 1.93 3.73 6.09 4.84 9.25 1.34 3.8 2.02 8.29 2.02 13.25 0 5.26-0.65 9.22-2.17 13.25-1.52 4.03-3.83 7.41-7.75 11.29-3.07 3.05-7.83 6.64-10.58 7.98-4.27 2.08-6.47 2.44-15.02 2.46-9.21 0.02-10.53-0.23-16.5-3.12-4.03-1.96-8.14-4.99-10.87-8-2.41-2.68-5.33-6.88-6.49-9.36-1.7-3.63-2.11-6.43-2.11-14.5-0.01-9.03 0.28-10.62 2.99-16.38 1.76-3.75 4.86-8.12 7.5-10.58 2.48-2.31 5.96-4.95 7.75-5.87 1.79-0.92 5.61-2.34 8.5-3.16 3.21-0.91 7.39-1.29 10.75-0.98zm355 0.17c3.02 0.32 7.3 1.21 9.5 1.99 2.2 0.77 6.02 2.72 8.5 4.32 2.48 1.61 5.83 4.62 7.45 6.7 1.62 2.09 4.1 6.27 5.5 9.29 2.1 4.53 2.55 6.99 2.55 14 0 7.21-0.42 9.37-2.75 14.25-1.51 3.16-4.89 8.03-7.5 10.82-2.61 2.79-7.23 6.28-10.25 7.75-4.84 2.36-6.69 2.68-15.5 2.68-8.79 0-10.67-0.32-15.5-2.66-3.02-1.47-7.64-4.73-10.25-7.25-2.71-2.62-5.86-7.06-7.34-10.34-1.51-3.36-2.81-8.46-3.13-12.25-0.39-4.62-0.04-8.24 1.21-12.5 0.96-3.3 2.87-7.8 4.23-10 1.37-2.2 3.9-5.28 5.63-6.85 1.73-1.57 5.17-4.03 7.65-5.47 2.48-1.44 6.75-3.16 9.5-3.83 2.78-0.68 7.44-0.97 10.5-0.65zm-321.5 0.3c5.23 0 10.62 0.45 14.5 2l-5.25 5.51c-2.89 3.03-5.7 5.51-6.25 5.51-0.55 0-3.58-2.59-6.74-5.76-3.16-3.17-5.75-6.1-5.75-6.51-0.01-0.41 4.26-0.75 9.49-0.75zm188.5 2v46h-17l-0.17-22.33c-0.09-12.29 0.21-22.64 0.67-23 0.46-0.37 4.36-0.67 16.5-0.67zm5 0h20.98l-0.48 45.5-20.5 0.5zm166.68 9h34.32l0.03 10.75c0.03 9.71-0.17 10.94-2.1 12.75-1.92 1.8-3.51 2-29.43 2l-0.6-6.5c-0.34-3.57-0.97-9.31-1.41-12.75zm-402.69 5.32c-1.92 0.62-5.31 2.93-7.54 5.15-2.91 2.9-4.32 5.35-5.04 8.74-0.55 2.59-0.87 6.76-0.71 9.25 0.21 3.3 1.19 5.7 3.56 8.79 1.79 2.34 5.28 5.27 7.75 6.51 2.72 1.37 6.25 2.24 8.98 2.23 2.48-0.02 6.3-0.85 8.5-1.85 2.2-1 5.47-3.46 7.25-5.48 1.79-2.01 3.7-5.35 4.25-7.41 0.55-2.06 0.99-4.87 0.98-6.25 0-1.37-0.55-4.3-1.22-6.5-0.69-2.26-3.07-5.85-5.49-8.25-2.46-2.45-5.85-4.67-8.02-5.24-2.06-0.55-5.1-0.96-6.75-0.9-1.65 0.05-4.57 0.6-6.5 1.21zm77.5 0.22c-2.2 0.8-5.27 2.7-6.84 4.21-1.56 1.51-3.7 4.44-4.75 6.5-1.12 2.21-1.91 5.81-1.91 8.75 0 2.75 0.45 6.13 1 7.5 0.55 1.38 2.69 4.33 4.75 6.56 2.16 2.33 5.67 4.74 8.25 5.67 3.17 1.13 5.99 1.41 9.5 0.93 2.75-0.36 6.69-1.79 8.75-3.16 2.07-1.38 4.85-4.41 6.18-6.75 1.33-2.34 2.72-5.83 3.08-7.75 0.37-1.93 0.13-5.52-0.51-8-0.65-2.48-2.38-6.05-3.84-7.94-1.46-1.9-4.91-4.48-7.66-5.74-2.75-1.27-6.57-2.29-8.5-2.27-1.92 0.02-5.3 0.69-7.5 1.49zm276 0.34c-2.2 1.01-5.28 3.14-6.85 4.73-1.57 1.59-3.54 4.24-4.38 5.89-0.83 1.65-1.56 5.48-1.61 8.5-0.07 4.11 0.53 6.63 2.37 9.96 1.5 2.69 4.26 5.58 6.97 7.3 2.48 1.56 6.53 3.1 9 3.42 2.65 0.34 6.15 0.03 8.5-0.75 2.2-0.72 5.52-2.69 7.38-4.37 1.86-1.69 4.22-4.75 5.25-6.81 1.08-2.16 1.87-5.87 1.87-8.75 0-3-0.8-6.6-2-9-1.1-2.2-3.01-4.95-4.25-6.12-1.23-1.17-4.05-2.96-6.25-3.98-2.2-1.02-5.8-1.86-8-1.86-2.2 0-5.8 0.83-8 1.84zm-345.43 2.35c4.42 0.21 6.37 0.89 9.44 3.27 2.13 1.65 4.51 4.57 5.29 6.5 0.82 2.01 1.27 5.65 1.06 8.56-0.26 3.74-1.14 6.08-3.36 8.94-1.65 2.13-4.57 4.51-6.5 5.3-2.02 0.82-5.66 1.27-8.65 1.06-3.2-0.22-6.24-1.15-8-2.45-1.57-1.15-3.9-3.63-5.18-5.5-1.95-2.85-2.28-4.41-2-9.48 0.26-4.66 0.97-6.95 3.05-9.85 1.49-2.08 4.19-4.42 6-5.2 1.87-0.81 5.67-1.3 8.85-1.15zm76.43-0.21c3.32 0.01 6.33 0.76 8.93 2.25 2.49 1.42 4.78 3.87 6.27 6.73 1.36 2.61 2.33 6.18 2.31 8.5-0.02 2.26-1.03 5.74-2.31 8-1.28 2.25-4.01 4.98-6.23 6.23-2.54 1.43-5.67 2.24-8.72 2.25-2.61 0.01-5.98-0.59-7.5-1.35-1.51-0.75-3.98-2.77-5.5-4.5-1.51-1.72-3.2-4.93-3.75-7.13-0.68-2.73-0.66-5.35 0.07-8.25 0.59-2.34 1.83-5.19 2.75-6.34 0.93-1.15 3.26-3.06 5.18-4.25 2.38-1.46 5.12-2.15 8.5-2.14zm277.67 0.18c3.81 0.2 6.59 0.98 8.5 2.39 1.56 1.15 3.86 3.63 5.11 5.5 1.68 2.52 2.28 4.85 2.28 8.91 0 4.52-0.54 6.26-3.03 9.75-1.66 2.34-4.38 4.92-6.03 5.75-1.65 0.83-5.13 1.49-7.75 1.48-3.05-0.01-6.15-0.81-8.67-2.25-2.45-1.39-4.83-3.92-6.33-6.73-1.74-3.27-2.29-5.6-1.98-8.5 0.23-2.2 1.28-5.75 2.33-7.88 1.12-2.28 3.55-4.88 5.9-6.3 3.23-1.95 5.1-2.36 9.67-2.12z"/>
	<path id="Preencher com Gradiente 1" fill-rule="evenodd" class="s2" d="m130 29.48c13.56 0.27 21.17 0.92 28.5 2.42 5.5 1.13 11.58 2.47 13.5 2.98 1.92 0.52 5.98 1.7 9 2.64 3.02 0.93 9.89 3.45 25 9.48l65.75 0.05c36.16 0.03 69.13 0.41 73.25 0.83 4.61 0.48 9.81 1.83 13.5 3.5 3.3 1.5 7.91 4.61 10.25 6.92 2.37 2.35 5.67 7.28 7.48 11.2 3.17 6.84 3.25 7.39 3.64 23.5 0.35 14.48 0.14 17.35-1.67 23.5-1.13 3.85-3.59 9.25-5.47 12-1.87 2.75-5.61 6.67-8.31 8.72-2.78 2.1-7.1 4.23-9.92 4.9-3.04 0.71-8.14 0.93-13 0.56-4.4-0.34-12.27-1.79-17.5-3.21-5.23-1.43-13.55-4.34-18.5-6.46-4.95-2.12-12.38-5.64-16.5-7.81-4.13-2.17-16.5-9.32-27.5-15.88-11-6.57-25.17-14.68-31.5-18.04-6.33-3.36-16.9-8.22-23.5-10.81-6.6-2.58-18.08-6.24-25.5-8.12-7.42-1.89-19.35-4.13-26.5-4.99-9.01-1.08-17.3-1.39-27-1-7.7 0.31-17.6 1.21-22 2-4.4 0.79-10.92 2.32-14.5 3.41-3.58 1.09-9.2 3.21-12.5 4.71-3.3 1.5-9.15 4.78-13 7.29-3.85 2.5-9.27 6.84-12.05 9.64-2.78 2.8-7.03 8.02-9.44 11.59-2.42 3.57-5.81 9.43-7.55 13-1.73 3.57-4.46 9.97-6.06 14.21-1.59 4.24-3.3 7.39-3.79 7-0.5-0.4-0.59-4.46-0.19-9.21 0.38-4.68 1.32-11.43 2.07-15 0.76-3.57 2.59-9.88 4.06-14 1.48-4.13 4.1-10.14 5.82-13.36 1.72-3.22 5.4-8.62 8.18-12 2.77-3.38 7.83-8.28 11.25-10.89 3.41-2.61 9.12-6.1 12.7-7.75 3.58-1.65 10.21-4.09 14.75-5.42 4.9-1.44 13.74-2.91 21.75-3.61 8.99-0.8 22.86-0.98 41.5-0.56 25.1 0.57 27.79 0.48 26-0.87-1.1-0.83-6.73-2.86-12.5-4.51-5.77-1.64-14.55-3.69-19.5-4.55-5.19-0.89-15.34-1.59-24-1.63-9.87-0.06-17.99 0.47-23.75 1.53-4.81 0.89-12.46 2.99-17 4.66-4.54 1.66-10.16 4.14-12.5 5.5-2.45 1.42-4.46 2.04-4.75 1.46-0.27-0.55 1.41-2.4 3.75-4.1 2.34-1.71 6.95-4.43 10.25-6.04 3.3-1.61 10.27-4.09 15.5-5.5 5.23-1.42 12.2-2.95 15.5-3.41 3.3-0.46 14.33-0.67 24.5-0.47zm138.5 3.55c20.35 0 38.02 0.33 39.27 0.73 1.25 0.41 2.82 1.98 3.5 3.5 0.68 1.51 0.97 2.98 0.66 3.26-0.31 0.28-19.66 0.5-43 0.49-23.34 0-42.54-0.24-42.68-0.51-0.14-0.28 0.53-1.74 1.48-3.25 0.95-1.51 2.18-3.08 2.75-3.48 0.56-0.41 17.67-0.74 38.02-0.74zm83 2.44c3.3 0.36 8.48 1.36 11.5 2.22 3.02 0.85 8.87 3.19 12.98 5.18 5.07 2.46 9.5 5.65 13.75 9.88 3.87 3.86 7.57 8.83 9.67 13 1.86 3.71 3.89 9.45 4.5 12.75 0.64 3.45 1.11 17.39 1.11 32.75-0.01 14.71-0.47 28.66-1.02 31-0.56 2.34-1.83 5.15-2.83 6.25-0.99 1.1-2.33 3.01-2.98 4.25-0.65 1.24-1.63 2.02-2.18 1.75-0.55-0.27-1 0.06-1 0.75 0 0.98-13.32 1.29-125.5 1.64l-8-4.62c-4.4-2.54-15.65-9.21-25-14.84-9.35-5.62-19.02-11.4-21.5-12.84-2.48-1.44-9-4.92-14.5-7.73-5.5-2.82-14.95-7.07-21-9.44-6.05-2.37-16.4-5.71-23-7.42-6.6-1.71-16.5-3.75-22-4.54-5.5-0.78-17.42-1.44-26.5-1.46-12.52-0.02-18.79 0.44-26 1.92-5.23 1.07-10.29 2.2-11.25 2.51-0.96 0.31-1.98 0.12-2.25-0.43-0.27-0.55 2.31-2.89 5.75-5.19 3.44-2.31 10.3-5.63 15.25-7.39 4.95-1.77 13.5-3.93 19-4.8 6.21-1 16.25-1.6 26.5-1.61 11.31 0 20.75 0.63 30 1.99 7.42 1.1 17.55 3.14 22.5 4.55 4.95 1.41 12.83 3.95 17.5 5.63 4.67 1.69 14.35 5.92 21.5 9.41 7.15 3.49 18.4 9.43 25 13.19 6.6 3.76 16.5 9.38 22 12.49 5.5 3.1 15.17 8.08 21.5 11.06 6.33 2.97 14.87 6.62 19 8.09 4.12 1.48 11.1 3.63 15.5 4.78 5.52 1.44 11.1 2.09 18 2.1 7.04 0.01 11.33-0.49 14.5-1.7 2.48-0.94 6.75-3.41 9.5-5.49 2.75-2.08 6.68-6.21 8.74-9.19 2.06-2.98 4.69-8.12 5.86-11.42 1.25-3.55 2.52-10.7 3.1-17.5 0.54-6.32 0.75-15.77 0.46-21-0.31-5.86-1.35-11.99-2.69-16-1.2-3.57-3.43-8.3-4.95-10.5-1.52-2.2-4.51-5.72-6.64-7.82-2.13-2.09-6.8-5.45-10.38-7.45-3.58-2.01-9.79-4.57-13.81-5.69-4.01-1.12-6.94-2.42-6.5-2.88 0.45-0.47 3.51-0.55 6.81-0.19zm-238 67.23c6.6 0.26 16.73 1.29 22.5 2.29 5.77 1.01 14.1 2.75 18.5 3.88 4.4 1.12 12.95 3.89 19 6.14 6.05 2.25 16.4 6.75 23 9.99 6.6 3.24 16.27 8.45 21.5 11.58 5.23 3.13 10.17 6.31 11 7.07 1.3 1.19 0.99 1.37-2.25 1.36-2.06 0-15.11-2.27-29-5.03-13.89-2.76-31.1-5.73-38.25-6.59-8.34-1.01-21.07-1.57-35.5-1.55-16.24 0.02-25 0.47-31.5 1.64-4.95 0.89-11.48 2.31-14.5 3.17-3.02 0.85-7.52 2.5-10 3.66-2.48 1.16-7.56 4.58-11.29 7.59-3.74 3.02-8.01 7.05-9.5 8.97-1.49 1.92-4.78 7.57-7.32 12.56-3.32 6.54-4.83 8.65-5.41 7.57-0.43-0.82-0.44-6.45-0.02-12.5 0.43-6.05 1.62-14.04 2.66-17.75 1.03-3.71 3.29-9.56 5.01-13 1.72-3.44 4.73-8.05 6.69-10.25 1.96-2.2 6.07-5.87 9.12-8.15 3.06-2.28 8.48-5.33 12.06-6.77 3.58-1.44 10.12-3.25 14.54-4 4.43-0.76 10.05-1.6 12.5-1.87 2.45-0.27 9.86-0.27 16.46-0.01z"/>
</svg>