<svg version="1.2" xmlns="http://www.w3.org/2000/svg" viewBox="0 0 951 245" width="951" height="245">
	<defs>
		<linearGradient id="g1" x2="1" gradientUnits="userSpaceOnUse" gradientTransform="matrix(342.97,0,0,101.899,600.03,121.95)">
			<stop offset="0" stop-color="#00ffff"/>
			<stop offset="1" stop-color="#4f46e5"/>
		</linearGradient>
		<linearGradient id="g2" x2="1" gradientUnits="userSpaceOnUse" gradientTransform="matrix(378.752,0,0,147.86,18.105,212.147)">
			<stop offset="0" stop-color="#20c3ec"/>
			<stop offset="1" stop-color="#1e83c7"/>
		</linearGradient>
	</defs>
	<style>
		.s0 { fill: url(#g1) } 
		.s1 { fill: #cfcede } 
		.s2 { fill: url(#g2) } 
	</style>
	<path id="Preencher com Gradiente 2" fill-rule="evenodd" class="s0" d="m751.5 71c6.33 0 11.52 0.34 11.54 0.75 0.03 0.41-5.37 5.14-24.04 20.25h-6.5c-3.67 0-6.5-0.44-6.5-1 0-0.55 3.16-4.94 7.02-9.75 3.86-4.81 7.01-9.09 7-9.5-0.01-0.41 5.15-0.75 11.48-0.75zm110.65 1c2.12 0 4.86 0.52 6.1 1.16 1.24 0.64 2.8 1.88 3.47 2.75 0.67 0.88 1.23 3.28 1.25 5.34 0.02 2.82-0.69 4.49-2.89 6.75-1.61 1.65-3.97 3-5.25 2.99-1.28 0-4.02-0.45-6.08-1-2.73-0.72-4.18-1.87-5.36-4.24-1.02-2.07-1.38-4.43-1-6.5 0.35-1.85 1.76-4.11 3.26-5.25 1.59-1.19 4.21-2 6.5-2zm-218.65 4.12c2.2-0.06 6.92 0.35 10.5 0.91 3.58 0.56 9.76 2.58 13.75 4.49 5.01 2.41 8.29 4.79 10.63 7.73 1.86 2.34 4.33 6.16 5.5 8.5 1.17 2.34 2.81 6.84 3.65 10 0.84 3.17 1.56 10.23 1.6 15.75 0.04 5.5-0.47 12.7-1.15 16-0.67 3.3-2.23 8.25-3.45 11-1.23 2.75-4.25 7.25-6.73 10-3.17 3.53-6.68 6.01-11.9 8.43-6.59 3.06-8.55 3.49-17.9 3.88-6.32 0.26-12.69-0.05-16-0.79-3.03-0.68-8.16-2.64-11.41-4.37-3.24-1.73-7.45-4.95-9.33-7.15-1.89-2.2-4.52-6.14-5.85-8.75-1.32-2.61-3.08-7.56-3.9-11-0.81-3.44-1.48-10.75-1.48-16.25 0-5.5 0.67-12.81 1.48-16.25 0.82-3.44 2.46-8.16 3.65-10.5 1.19-2.34 4.28-6.5 6.87-9.25 2.83-3 7.06-6.08 10.59-7.71 3.23-1.49 8.35-3.12 11.38-3.63 3.03-0.51 7.3-0.98 9.5-1.04zm-9 18.77c-2.2 1.02-4.99 2.92-6.19 4.23-1.21 1.31-3.2 4.63-4.42 7.38-1.65 3.72-2.34 7.57-2.68 15-0.25 5.5 0.04 12.48 0.65 15.5 0.61 3.02 2.13 7.03 3.37 8.91 1.25 1.87 4 4.8 6.11 6.5 3.68 2.95 4.25 3.09 13.08 3.09 8.39 0 9.61-0.25 13.4-2.75 2.96-1.95 4.98-4.43 6.93-8.5 2.58-5.4 2.75-6.58 2.75-19.25 0-9.26-0.45-14.76-1.44-17.5-0.8-2.2-2.82-5.54-4.5-7.41-1.69-1.88-4.86-4.23-7.06-5.23-2.44-1.11-6.34-1.82-10-1.82-3.72 0-7.52 0.7-10 1.85zm101.25 4.23c4.54-0.07 10.39 0.32 13 0.87 2.61 0.54 6.66 2.34 9 4 2.34 1.65 5.26 4.92 6.5 7.26 2.16 4.08 2.26 5.38 2.75 60.75h-14l-3-10-4.75 4.28c-3.39 3.06-6.32 4.67-10.25 5.64-3.46 0.85-8.09 1.15-12.5 0.79-5.54-0.44-7.82-1.15-10.91-3.39-2.15-1.55-4.83-4.62-5.96-6.82-1.12-2.2-2.22-6.48-2.44-9.5-0.22-3.02 0.11-7.3 0.73-9.5 0.61-2.2 2.57-5.44 4.35-7.2 1.78-1.76 5.48-4.18 8.23-5.38 3.58-1.56 8.77-2.49 31.6-4.42l-0.69-4c-0.37-2.2-1.19-4.79-1.8-5.75-0.61-0.96-2.46-2.2-4.11-2.76-1.65-0.56-4.69-1.02-6.75-1.01-2.06 0.01-6.34 0.86-9.5 1.9-3.16 1.03-6.54 2.15-7.5 2.5-1.38 0.49-2.39-0.65-4.75-5.38-1.65-3.3-2.78-6.45-2.5-7 0.28-0.55 3.31-1.87 6.75-2.94 3.44-1.06 7.15-2.13 8.25-2.38 1.1-0.25 5.71-0.5 10.25-0.56zm77.75 0.27c7.72 0.27 12.86 1.02 23.5 4.61l-2.92 6.75c-1.61 3.71-3.3 6.73-3.75 6.71-0.46-0.02-3.98-1.04-7.83-2.27-3.85-1.23-9.14-2.22-11.75-2.21-3.4 0.01-5.32 0.59-6.75 2.02-1.43 1.43-1.79 2.62-1.25 4.19 0.41 1.21 2.1 3.01 3.75 4 1.65 1 6.97 3.5 11.83 5.56 4.86 2.06 10.45 5.1 12.43 6.75 1.97 1.65 4.19 4.46 4.91 6.25 0.73 1.79 1.33 5.95 1.33 9.25 0 3.9-0.66 7.31-1.89 9.75-1.05 2.06-2.73 4.51-3.75 5.44-1.02 0.93-4.11 2.73-6.86 4-4.41 2.04-6.53 2.31-18 2.31-9.71 0-14.33-0.44-23.5-3.5v-8c0-7.18 0.18-7.94 1.75-7.4 0.96 0.33 4.22 1.52 7.25 2.64 3.82 1.41 8.15 2.07 14.2 2.15 7.61 0.1 8.9-0.14 10.22-1.89 0.83-1.1 1.53-3.01 1.55-4.25 0.02-1.39-1.21-3.19-3.22-4.71-1.79-1.36-6.17-3.74-9.75-5.29-3.58-1.56-8.3-3.76-10.5-4.9-2.2-1.14-5.15-3.38-6.54-4.96-1.4-1.59-3.15-4.69-3.89-6.89-0.83-2.5-1.1-5.78-0.7-8.75 0.34-2.61 1.33-5.99 2.19-7.5 0.85-1.51 2.99-3.76 4.75-5 1.75-1.24 5.22-2.92 7.69-3.74 3.25-1.08 7.55-1.39 15.5-1.12zm106 0c7.72 0.27 12.86 1.02 23.5 4.61l-2.67 6.25c-1.47 3.44-2.93 6.57-3.25 6.96-0.32 0.39-3.62-0.4-7.33-1.75-4.11-1.5-8.9-2.46-12.25-2.46-4.17 0-5.98 0.48-7.5 2-1.48 1.48-1.79 2.58-1.19 4.25 0.51 1.41 3.4 3.56 7.75 5.76 3.82 1.93 9.41 4.62 12.44 5.98 3.03 1.35 6.81 3.6 8.42 4.99 1.6 1.38 3.51 3.98 4.25 5.77 0.73 1.79 1.32 5.84 1.31 9-0.02 3.42-0.77 7.37-1.86 9.75-1.01 2.2-2.69 4.76-3.73 5.69-1.04 0.93-4.14 2.73-6.89 4-4.41 2.04-6.53 2.31-18 2.31-9.71 0-14.33-0.44-23.5-3.5v-16l7.25 2.63c5.6 2.04 9.25 2.66 16.08 2.75 7.75 0.11 9-0.12 10.26-1.88 0.8-1.1 1.44-3.01 1.43-4.25-0.01-1.36-1.3-3.2-3.27-4.66-1.79-1.33-7.97-4.62-13.75-7.32-6.52-3.04-11.54-6.11-13.25-8.08-1.51-1.76-3.25-5.1-3.85-7.44-0.61-2.34-0.81-6.27-0.46-8.75 0.36-2.48 1.33-5.62 2.16-7 0.83-1.37 2.95-3.51 4.71-4.75 1.75-1.24 5.22-2.92 7.69-3.74 3.25-1.08 7.55-1.39 15.5-1.12zm-66.5 0.61h19v72h-19zm-115 38.99c-4.13 0.38-8.63 1.4-10 2.27-1.38 0.87-3.06 2.74-3.75 4.16-0.69 1.42-1.27 3.82-1.29 5.33-0.03 1.51 0.76 3.81 1.75 5.1 1.34 1.76 3.05 2.47 6.79 2.81 3.58 0.32 5.99-0.06 8.47-1.35 1.9-1 4.34-3.38 5.42-5.31 1.16-2.06 1.99-5.51 2.04-8.4 0.04-2.69-0.38-4.99-0.93-5.1-0.55-0.11-4.38 0.11-8.5 0.49z"/>
	<path id="Preencher com Cor Sólida 1" fill-rule="evenodd" class="s1" d="m387.68 22.99c1-0.01 4.07 0.65 6.82 1.46 2.91 0.85 6.38 2.84 8.32 4.76 1.82 1.81 3.73 4.86 4.24 6.79 0.53 2 0.82 28.08 0.44 118.5l-26 0.72c-14.3 0.4-28.14 1.19-30.75 1.75-2.61 0.57-7 1.03-14.75 1.03l-0.5 23.5-29.5 0.5v5l29.5 0.5v17l-42.5 0.5-3.5-7.5-40.5-0.5-0.52 4.25c-0.29 2.34-1.64 6.61-3 9.5-1.37 2.89-4.39 7.18-6.73 9.54-2.34 2.36-6.95 5.63-10.25 7.25-5.44 2.68-6.94 2.96-16 2.96-8.8 0-10.66-0.32-15.5-2.67-3.02-1.48-7.56-4.85-10.08-7.5-2.52-2.66-5.52-6.63-6.66-8.83-1.13-2.2-2.56-6.81-3.16-10.25-0.8-4.54-0.8-7.96 0-12.5 0.6-3.44 2.03-8.05 3.16-10.25 1.14-2.2 4.14-6.17 6.66-8.83 2.52-2.65 6.49-5.92 8.83-7.25 2.34-1.33 6.84-2.94 10-3.58 4.3-0.87 5.25-1.34 3.75-1.87-1.1-0.39-6.5-1.45-12-2.34-5.5-0.9-16.52-2.07-24.5-2.62-7.98-0.54-20.35-1-27.5-1.01-7.15-0.01-15.48 0.44-18.5 1.01-3.02 0.57-8.2 2.29-11.5 3.83-3.35 1.57-8.2 5.02-11 7.83-2.75 2.77-6.44 7.69-8.2 10.93-2.02 3.72-3.7 8.86-5.93 21.9l-39.37 0.5v-23.5c0-22.17 0.11-23.61 2-25.5 1.1-1.1 3.46-2.26 5.25-2.57 1.79-0.32 34.75-0.38 73.25-0.15 58.53 0.35 71.88 0.7 81.5 2.09 6.33 0.92 14.87 2.54 19 3.6 4.12 1.06 11.1 3.1 15.5 4.53 4.4 1.43 14.3 5.74 22 9.57 7.7 3.83 17.6 9.66 22 12.95 4.4 3.29 8.34 5.98 8.75 5.98 0.41 0 0.75-0.79 0.75-1.75-0.01-0.96-0.82-3.1-1.82-4.75-1-1.65-5.39-5.89-9.75-9.42-4.36-3.53-11.53-8.75-15.93-11.59-4.4-2.85-9.46-5.92-11.25-6.83-1.79-0.92-3.25-2.11-3.25-2.66 0-0.55 0.79-0.95 1.75-0.88 0.96 0.06 15.25 0.08 31.75 0.04 26.92-0.06 29.87-0.23 28.75-1.62-0.79-0.97-0.88-1.73-0.25-2.04 0.55-0.27 1.34-0.32 1.75-0.1 0.41 0.23 5.02 0.9 10.25 1.5 7.28 0.84 10.97 0.8 15.8-0.15 3.46-0.69 6.5-1.02 6.74-0.75 0.24 0.27-0.11 1.08-0.8 1.79-1.01 1.06-0.4 1.29 3.26 1.24 2.48-0.04 6.3-0.58 8.5-1.22 2.2-0.63 4.43-1.52 4.95-1.98 0.52-0.46 2.21-0.83 3.75-0.83 1.8 0 3.16 0.71 3.8 2 0.55 1.1 1.9 2 3 2 1.1 0 2.23-0.79 2.51-1.75 0.47-1.62 0.65-1.6 2.49 0.25 1.6 1.6 1.75 2.26 0.75 3.29-1.02 1.06 0.18 1.29 14.25 1.21v-112l-2.75-2.95c-1.63-1.75-4.78-3.52-7.75-4.35-4.23-1.18-5.05-1.81-5.32-4.05-0.25-2.01 0.11-2.65 1.5-2.66zm65.82 23.01c3.62 0 4.5 0.34 4.49 1.75-0.01 1.43 1.27 1.89 7 2.5 3.86 0.41 8.92 1.71 11.26 2.88 2.34 1.18 4.58 2.64 4.98 3.25 0.41 0.62 0.75 1.46 0.75 1.87 0.01 0.41-2 0.75-4.48 0.75-3.13 0-4.39 0.38-4.13 1.25 0.2 0.69 2.73 8.23 5.63 16.75 2.9 8.52 5.78 16.08 6.39 16.8 0.61 0.71 2.69 1.54 4.61 1.84 1.92 0.31 8.23 1.67 14 3.04 5.77 1.37 16.58 4.54 24 7.05 7.42 2.5 17.36 6.18 22.09 8.16 4.72 1.99 9.62 4.29 10.88 5.11 2.17 1.41 2.36 2.4 3.11 16 0.43 7.98 0.82 17.76 0.92 29l-44.5-0.08-3.25-2.96c-1.79-1.63-5.16-3.93-7.5-5.11-2.34-1.19-6.5-2.76-9.25-3.49-2.75-0.74-7.25-1.35-10-1.36-2.75-0.01-7.48 0.43-10.5 0.99-3.02 0.56-8.37 2.47-11.87 4.26-3.7 1.89-8.55 5.55-11.59 8.75-2.88 3.02-6.15 7.3-7.28 9.5-1.13 2.2-2.83 6.7-3.78 10-1.22 4.23-1.62 8.44-0.98 22.49l-27.25 0.01c-26.58 0-27.25-0.05-27.25-2 0-1.94 0.67-2 21.5-2 13.33 0 21.69-0.38 22-1 0.27-0.55 0.27-1.67 0-2.5-0.42-1.27-3.78-1.5-43.5-1.5l0.5-13.05 10.5-0.37c5.77-0.2 15.34-0.41 21.25-0.47 10.05-0.1 10.75-0.24 10.75-2.11 0-1.94-0.67-2-43-2v-14h22c18.89 0 22-0.21 22-1.5 0-1.2-1.67-1.54-8.25-1.69-4.54-0.1-12.08-0.1-16.75 0-4.67 0.11-10.86-0.03-13.75-0.31-2.89-0.27-5.25-0.95-5.25-1.5 0-0.61 4.33-1 11-1 6.05 0 11.9-0.45 13-1 1.96-0.98 2-2 1.99-104.5l2.26-1.37c1.26-0.77 7.29-1.74 13.75-2.22 6.33-0.48 12.74-0.87 14.25-0.89 2.08-0.01 2.75-0.51 2.75-2.02 0-1.7 0.67-2 4.5-2zm-28.56 14.93c-0.71 1.24-1.09 7.95-1.03 18.5 0.05 9.12 0.54 17.47 1.09 18.57 0.87 1.73 2 2 8.5 2 4.8 0 8.31 0.52 9.75 1.43 1.85 1.18 5.43 1.32 20 0.75 13.18-0.5 17.76-1 17.75-1.93 0-0.69-3.04-10.26-6.75-21.27l-6.75-20.02c-40.14 0.04-41.51 0.16-42.56 1.97zm8.56 1.56c1.65 0.29 5.92 0.52 16 0.47l0.78 4.27c0.42 2.35 2.16 8.77 3.85 14.27 1.7 5.5 3.94 11.69 4.98 13.75 1.04 2.06 1.89 3.98 1.89 4.25 0 0.27-3.49 0.49-7.75 0.47-5.93-0.01-8.18-0.43-9.6-1.75-1.22-1.12-4.15-1.89-15.15-2.72l-0.44-15.92c-0.36-13.14-0.19-16.08 1-16.78 0.79-0.47 2.79-0.61 4.44-0.31zm53.02 40.16c-0.47 0.37-0.78 8.71-0.69 18.52l0.17 17.83c-57.89 0-62 0.2-62 1.5 0 0.82 0.67 1.73 1.5 2 0.83 0.27 14.97 0.5 31.43 0.5 25.24 0 30.17-0.24 31.5-1.5 1.34-1.28 1.53-4.28 1.32-20.17-0.16-12.12-0.62-18.79-1.32-19.02-0.58-0.19-1.45-0.04-1.91 0.34zm53.48 43.35c0 1.7 0.67 2 4.5 2h4.5c0.44 10.08 0.87 11.5 2 11.5 1.13 0 1.56-1.42 1.75-5.75 0.25-5.67 0.29-5.75 3.25-5.75 2.33 0 3-0.44 3-2 0-1.86-0.67-2-9.5-2-8.83 0-9.5 0.14-9.5 2zm-402 12.67c3.02 0.3 7.3 1.25 9.5 2.11 2.2 0.86 5.8 2.77 8 4.24 2.2 1.47 5.58 4.47 7.5 6.67 1.99 2.27 4.47 6.88 5.75 10.66 1.49 4.39 2.25 9.03 2.25 13.65 0 4.74-0.7 8.85-2.17 12.75-1.52 4.03-3.83 7.41-7.75 11.29-3.07 3.05-7.83 6.64-10.58 7.98-4.27 2.08-6.47 2.44-15.02 2.46-9.21 0.02-10.53-0.23-16.5-3.12-4.04-1.97-8.12-4.97-10.85-8-2.41-2.68-5.31-6.88-6.46-9.36-1.65-3.58-2.09-6.55-2.12-14.5-0.05-9.07 0.23-10.59 2.95-16.41 1.97-4.21 4.71-7.95 8-10.89 2.75-2.46 7.02-5.35 9.5-6.42 2.48-1.07 6.3-2.33 8.5-2.8 2.2-0.46 6.48-0.6 9.5-0.31zm354 0.03c3.02 0.32 7.3 1.21 9.5 1.99 2.2 0.77 6.02 2.72 8.5 4.32 2.48 1.61 5.83 4.62 7.45 6.7 1.62 2.09 4.1 6.27 5.5 9.29 2.1 4.53 2.55 6.99 2.55 14 0 7.21-0.42 9.37-2.75 14.25-1.51 3.16-4.89 8.03-7.5 10.82-2.61 2.79-7.23 6.28-10.25 7.75-4.84 2.36-6.69 2.68-15.5 2.68-8.79 0-10.67-0.32-15.5-2.66-3.02-1.47-7.64-4.73-10.25-7.25-2.71-2.62-5.86-7.06-7.34-10.34-1.51-3.36-2.81-8.46-3.13-12.25-0.39-4.62-0.04-8.24 1.21-12.5 0.96-3.3 2.87-7.8 4.23-10 1.37-2.2 3.9-5.28 5.63-6.85 1.73-1.57 5.17-4.03 7.65-5.47 2.48-1.44 6.75-3.16 9.5-3.83 2.78-0.68 7.44-0.97 10.5-0.65zm-321 0.3c5.5 0 10.9 0.45 12 1 1.87 0.93 1.65 1.37-3.25 6.51-2.89 3.03-5.7 5.51-6.25 5.51-0.55 0-3.58-2.59-6.74-5.76-3.16-3.17-5.75-6.1-5.75-6.51-0.01-0.41 4.49-0.75 9.99-0.75zm188 2v46h-17l-0.17-22.33c-0.09-12.29 0.21-22.64 0.67-23 0.46-0.37 4.36-0.67 16.5-0.67zm5 0h20.98l-0.48 45.5-20.5 0.5zm166.68 9h34.32l0.03 10.75c0.03 9.71-0.17 10.94-2.1 12.75-1.92 1.8-3.51 2-29.43 2l-0.6-6.5c-0.34-3.57-0.97-9.31-1.41-12.75zm-402.44 5.09c-1.78 0.5-5.27 2.93-7.75 5.41-2.67 2.67-4.9 6.02-5.49 8.25-0.55 2.06-0.99 5.32-0.98 7.25 0.01 1.93 0.85 5.3 1.87 7.5 1.02 2.2 3.15 5.21 4.73 6.7 1.58 1.48 4.56 3.39 6.62 4.25 2.07 0.85 5.67 1.54 8 1.53 2.34-0.01 6.05-0.84 8.25-1.84 2.2-1 5.47-3.46 7.25-5.48 1.79-2.01 3.7-5.35 4.25-7.41 0.55-2.06 1-5.21 1-7 0-1.79-1.01-5.35-2.25-7.92-1.23-2.57-3.82-5.96-5.75-7.52-1.92-1.57-5.07-3.29-7-3.82-1.92-0.54-4.85-0.94-6.5-0.89-1.65 0.04-4.46 0.49-6.25 0.99zm77.25 0.4c-2.2 0.83-5.27 2.75-6.84 4.26-1.56 1.51-3.7 4.44-4.75 6.5-1.1 2.16-1.9 5.76-1.88 8.5 0.01 2.61 0.84 6.55 1.83 8.75 1 2.2 3.47 5.46 5.48 7.25 2.02 1.79 5.35 3.7 7.41 4.24 2.07 0.55 5.1 1.01 6.75 1.02 1.65 0.01 5.25-1.08 8-2.41 3.51-1.69 5.98-3.87 8.25-7.26 1.78-2.66 3.51-6.42 3.82-8.34 0.32-1.93 0.11-5.3-0.48-7.5-0.58-2.2-1.97-5.46-3.07-7.25-1.11-1.79-3.93-4.37-6.27-5.74-2.33-1.37-6.5-2.72-9.25-3.01-3.22-0.34-6.42 0.01-9 0.99zm276 0.39c-2.2 1.01-5.28 3.14-6.85 4.73-1.57 1.59-3.54 4.24-4.38 5.89-0.83 1.65-1.56 5.48-1.61 8.5-0.07 4.11 0.53 6.63 2.37 9.96 1.5 2.69 4.26 5.58 6.97 7.3 2.48 1.56 6.53 3.1 9 3.42 2.65 0.34 6.15 0.03 8.5-0.75 2.2-0.72 5.52-2.69 7.38-4.37 1.86-1.69 4.22-4.75 5.25-6.81 1.08-2.16 1.87-5.87 1.87-8.75 0-3-0.8-6.6-2-9-1.1-2.2-3.01-4.95-4.25-6.12-1.23-1.17-4.05-2.96-6.25-3.98-2.2-1.02-5.8-1.86-8-1.86-2.2 0-5.8 0.83-8 1.84zm-347 2.22c2.2-0.03 5.8 0.75 8 1.73 2.2 0.99 5.13 3.34 6.5 5.23 2.07 2.84 2.5 4.58 2.5 10.02 0 5.78-0.36 7.04-3 10.44-1.65 2.12-4.57 4.49-6.5 5.28-2.02 0.82-5.66 1.27-8.65 1.06-3.2-0.22-6.24-1.15-8-2.45-1.57-1.15-3.9-3.63-5.18-5.5-1.95-2.85-2.28-4.41-2-9.48 0.26-4.65 0.96-6.94 3.02-9.78 1.47-2.04 4.17-4.33 6-5.09 1.82-0.77 5.11-1.42 7.31-1.46zm78.5-0.08c2.8 0.01 5.99 0.86 8.43 2.25 2.49 1.42 4.78 3.87 6.27 6.73 1.37 2.62 2.33 6.17 2.3 8.5-0.02 2.38-1.04 5.72-2.52 8.25-1.56 2.67-3.96 4.99-6.48 6.25-2.22 1.11-6 2-8.5 2-2.47 0-5.73-0.61-7.25-1.37-1.51-0.75-3.98-2.77-5.5-4.5-1.51-1.72-3.2-4.93-3.75-7.13-0.55-2.2-0.71-5.24-0.37-6.75 0.35-1.51 1.59-4.46 2.75-6.54 1.31-2.33 3.67-4.55 6.12-5.75 2.2-1.08 6.03-1.95 8.5-1.94zm276 0c2.48 0.01 6.3 0.88 8.5 1.94 2.66 1.29 4.81 3.38 6.4 6.24 1.71 3.08 2.35 5.72 2.27 9.3-0.09 3.54-0.86 6.1-2.65 8.75-1.38 2.06-3.98 4.65-5.77 5.75-2.04 1.25-5.01 1.99-8 2-2.75 0-6.42-0.84-8.75-2-2.71-1.36-4.85-3.53-6.66-6.75-2.27-4.03-2.57-5.47-2-9.5 0.36-2.61 1.45-6.14 2.41-7.83 0.97-1.7 3.55-4.17 5.75-5.49 2.66-1.6 5.52-2.41 8.5-2.41z"/>
	<path id="Preencher com Gradiente 1" fill-rule="evenodd" class="s2" d="m122 21.48c13.56 0.27 21.17 0.92 28.5 2.42 5.5 1.13 11.58 2.47 13.5 2.98 1.92 0.52 5.98 1.7 9 2.64 3.02 0.93 9.89 3.45 25 9.48l65.75 0.05c36.16 0.03 69.13 0.41 73.25 0.83 4.61 0.48 9.81 1.83 13.5 3.5 3.3 1.5 7.91 4.61 10.25 6.92 2.37 2.35 5.67 7.28 7.48 11.2 3.17 6.84 3.25 7.39 3.64 23.5 0.35 14.49 0.14 17.35-1.67 23.5-1.14 3.85-3.56 9.24-5.38 11.97-1.83 2.74-5.57 6.66-8.32 8.72-2.8 2.1-7.2 4.27-10 4.93-3.04 0.71-8.14 0.93-13 0.56-4.4-0.34-12.27-1.79-17.5-3.21-5.23-1.43-13.55-4.34-18.5-6.46-4.95-2.12-12.38-5.64-16.5-7.81-4.13-2.17-16.5-9.32-27.5-15.88-11-6.57-25.17-14.68-31.5-18.04-6.33-3.36-16.9-8.22-23.5-10.81-6.6-2.58-18.08-6.24-25.5-8.12-7.42-1.89-19.35-4.13-26.5-4.99-9.01-1.08-17.3-1.39-27-1-7.7 0.31-17.6 1.21-22 2-4.4 0.79-10.92 2.32-14.5 3.41-3.58 1.09-9.2 3.21-12.5 4.71-3.3 1.5-9.15 4.78-13 7.29-3.85 2.5-9.27 6.84-12.05 9.64-2.78 2.8-7.03 8.02-9.44 11.59-2.42 3.57-5.81 9.43-7.55 13-1.73 3.57-4.46 9.97-6.06 14.21-1.59 4.24-3.31 7.39-3.82 7-0.52-0.4-0.63-4.26-0.25-8.96 0.37-4.54 1.31-11.29 2.1-15 0.79-3.71 2.65-10.13 4.12-14.25 1.48-4.13 4.1-10.14 5.82-13.36 1.72-3.22 5.4-8.62 8.18-12 2.77-3.38 7.83-8.28 11.25-10.89 3.41-2.61 9.12-6.1 12.7-7.75 3.58-1.65 10.21-4.09 14.75-5.42 4.9-1.44 13.74-2.91 21.75-3.61 8.99-0.8 22.86-0.98 41.5-0.56 25.1 0.57 27.79 0.48 26-0.87-1.1-0.83-6.73-2.86-12.5-4.51-5.77-1.64-14.55-3.69-19.5-4.55-5.19-0.89-15.34-1.59-24-1.63-9.66-0.06-18.03 0.47-23.5 1.48-4.67 0.86-11.88 2.76-16 4.22-4.13 1.45-10.31 4.18-13.75 6.05-3.44 1.87-6.48 3.4-6.75 3.4-0.27 0-0.52-0.34-0.54-0.75-0.02-0.41 2.57-2.61 5.75-4.88 3.19-2.27 8.27-5.33 11.29-6.79 3.02-1.45 9.77-3.8 15-5.22 5.23-1.41 12.2-2.95 15.5-3.41 3.3-0.46 14.33-0.67 24.5-0.47zm140.5 4.17c19.8 0.08 36.67 0.18 37.5 0.22 0.83 0.04 2.06 1.21 2.75 2.6 0.69 1.39 1.25 2.98 1.25 3.53 0 0.65-15 1-43 1-23.65 0-42.87-0.34-42.72-0.75 0.16-0.41 0.94-1.98 1.75-3.49 0.91-1.69 2.43-2.84 3.97-3 1.37-0.14 18.7-0.19 38.5-0.11zm77.55 1.35c1.62 0 6.44 0.71 10.7 1.58 4.3 0.87 11.54 3.42 16.25 5.73 6.3 3.08 10.24 5.9 15.25 10.92 4.43 4.45 7.76 8.92 9.68 13.02 1.61 3.44 3.43 9.18 4.05 12.75 0.71 4.1 1.01 17.04 0.82 35-0.26 24.73-0.53 28.96-2.05 32-0.96 1.93-3.21 5.14-8.25 10.79l-62.25 0.11c-44.56 0.07-62.89-0.22-64.5-1.03-1.24-0.63-7.65-4.3-14.25-8.16-6.6-3.86-15.83-9.39-20.5-12.27-4.67-2.89-13-7.83-18.5-11-5.5-3.16-14.5-7.87-20-10.47-5.5-2.6-14.27-6.31-19.5-8.25-5.23-1.94-14.23-4.69-20-6.12-5.77-1.43-15-3.27-20.5-4.09-5.79-0.87-16.95-1.5-26.5-1.49-12.69 0-18.69 0.47-26 2.02-5.23 1.1-10.85 2.29-15.5 3.27l2-2.23c1.1-1.23 4.02-3.54 6.5-5.13 2.48-1.6 9-4.52 14.5-6.49 5.5-1.98 14.5-4.28 20-5.12 5.66-0.87 16.73-1.53 25.5-1.54 9.08-0.01 20.47 0.67 27.5 1.65 6.6 0.91 15.6 2.57 20 3.69 4.4 1.11 11.83 3.29 16.5 4.84 4.67 1.55 12.1 4.38 16.5 6.27 4.4 1.9 10.92 4.94 14.5 6.77 3.58 1.82 13.25 7.12 21.5 11.77 8.25 4.65 18.38 10.4 22.5 12.78 4.13 2.38 13.35 7.11 20.5 10.5 7.15 3.39 17.5 7.67 23 9.51 5.5 1.83 14.27 4.07 19.5 4.97 5.93 1.02 11.76 1.41 15.5 1.03 3.72-0.37 8.47-1.81 12.5-3.79 3.77-1.85 8.54-5.31 11.36-8.24 2.67-2.78 6.12-7.75 7.65-11.05 1.54-3.3 3.3-8.48 3.91-11.5 0.61-3.02 1.19-13.6 1.29-23.5 0.16-16.48-0.02-18.55-2.13-24.5-1.26-3.57-3.53-8.3-5.04-10.5-1.51-2.2-4.98-6.02-7.71-8.5-2.73-2.48-7.63-5.9-10.9-7.62-3.26-1.71-8.94-3.96-12.63-5-3.68-1.03-6.47-2.22-6.2-2.63 0.28-0.41 1.83-0.75 3.45-0.75zm-234.55 67.7c6.6 0.26 16.73 1.29 22.5 2.29 5.77 1.01 14.1 2.75 18.5 3.88 4.4 1.12 12.95 3.89 19 6.14 6.05 2.25 16.4 6.75 23 9.99 6.6 3.24 16.27 8.45 21.5 11.58 5.23 3.13 10.17 6.31 11 7.07 1.3 1.19 0.99 1.37-2.25 1.36-2.06 0-15.11-2.27-29-5.03-13.89-2.76-31.1-5.73-38.25-6.59-8.34-1.01-21.07-1.57-35.5-1.55-16.24 0.02-25 0.47-31.5 1.64-4.95 0.89-11.48 2.31-14.5 3.17-3.02 0.85-7.52 2.5-10 3.66-2.48 1.16-7.56 4.58-11.29 7.59-3.74 3.02-8.01 7.05-9.5 8.97-1.49 1.92-4.78 7.57-7.32 12.56-3.32 6.54-4.83 8.65-5.41 7.57-0.43-0.82-0.44-6.45-0.02-12.5 0.43-6.05 1.62-14.04 2.66-17.75 1.03-3.71 3.29-9.56 5.01-13 1.72-3.44 4.73-8.05 6.69-10.25 1.96-2.2 6.07-5.87 9.12-8.15 3.06-2.28 8.48-5.33 12.06-6.77 3.58-1.44 10.12-3.25 14.54-4 4.43-0.76 10.05-1.6 12.5-1.87 2.45-0.27 9.86-0.27 16.46-0.01z"/>
</svg>